<?xml version="1.0" encoding="UTF-8"?> <svg xmlns="http://www.w3.org/2000/svg" width="125" height="50" viewBox="0 0 125 50" fill="none"> <path d="M12.6757 27.4482C19.5776 27.4482 24.1337 29.7843 24.1337 34.7708V35.3099H17.683V34.7708C17.683 32.9289 15.6981 32.4348 12.6306 32.4348H11.8638C8.66094 32.4348 6.76632 32.9289 6.76632 33.9172V34.1419C6.76632 35.3997 8.0294 35.6693 14.5253 36.388C21.5624 37.2416 24.5397 39.1284 24.5397 42.9469V43.2614C24.5397 47.3045 20.57 49.955 12.8562 49.955H12.0442C4.05972 49.955 0.0449219 47.2596 0.0449219 42.318V41.8238H6.45055V42.318C6.45055 44.5192 8.4805 44.9685 12.0893 44.9685H12.8562C16.1041 44.9685 18.0438 44.5641 18.0438 43.3961V43.1266C18.0438 41.9137 16.2845 41.5992 10.1496 40.9253C3.60862 40.2964 0.315582 38.4545 0.315582 34.5013V34.1868C0.315582 29.8292 4.73637 27.4482 11.8638 27.4482H12.6757V27.4482Z" fill="#1D1D1B"></path> <path d="M40.7343 27.4482C47.952 27.4482 53.5456 30.9972 53.5456 37.4662V40.0718C53.5456 46.4959 47.952 49.9999 40.7343 49.9999H39.4262C32.0281 49.9999 26.3442 46.4509 26.3442 40.0718V37.4662C26.3442 31.0421 32.0732 27.4482 39.4262 27.4482H40.7343V27.4482ZM33.1559 37.5561V39.8921C33.1559 42.7223 35.4565 44.2497 39.4713 44.2497H40.5088C44.4785 44.2497 46.8242 42.7223 46.8242 39.8921V37.5561C46.8242 34.7259 44.4785 33.1985 40.5088 33.1985H39.4713C35.4565 33.1985 33.1559 34.7708 33.1559 37.5561Z" fill="#1D1D1B"></path> <path d="M76.7322 27.6729V33.1086H62.7932V36.433H75.1533V41.7339H62.7932V49.5507H56.0718V27.6729H76.7322Z" fill="#1D1D1B"></path> <path d="M103.934 27.8077V33.1986H94.6408V49.6855H87.9194V33.1986H78.6719V27.8077H103.934Z" fill="#1D1D1B"></path> <path d="M13.5331 0C21.0665 0 26.0737 3.00988 26.0737 8.71518V9.1195H19.2621V8.71518C19.217 7.05301 17.5479 5.75022 13.5331 5.75022H12.7212C8.79658 5.75022 6.90195 7.2327 6.90195 9.97304V12.5337C6.90195 15.3639 8.84169 16.8014 12.7212 16.8014H13.5331C17.5479 16.8014 19.3974 15.4088 19.3974 13.7017V13.4771H26.164V13.7017C26.164 19.3621 21.0665 22.5517 13.5331 22.5517H12.7212C5.50354 22.5517 0.090332 19.3621 0.090332 12.5337V9.97304C0.090332 3.18958 5.50354 0 12.7212 0H13.5331Z" fill="#1D1D1B"></path> <path d="M41.9072 0C49.1248 0 54.7185 3.54897 54.7185 10.018V12.6235C54.7185 19.0476 49.1248 22.5517 41.9072 22.5517H40.599C33.201 22.5517 27.5171 19.0027 27.5171 12.6235V10.018C27.5171 3.54897 33.201 0 40.599 0H41.9072ZM34.2836 10.1078V12.4438C34.2836 15.274 36.5842 16.8014 40.599 16.8014H41.6365C45.6062 16.8014 47.9519 15.274 47.9519 12.4438V10.1078C47.9519 7.27763 45.6062 5.75022 41.6365 5.75022H40.599C36.5842 5.75022 34.2836 7.27763 34.2836 10.1078Z" fill="#1D1D1B"></path> <path d="M69.8754 0C76.7773 0 81.3334 2.33603 81.3334 7.32255V7.86163H74.8827V7.32255C74.8827 5.48068 72.8978 4.98652 69.8303 4.98652H69.0635C65.8607 4.98652 63.966 5.48068 63.966 6.469V6.73854C63.966 7.99641 65.2291 8.26595 71.725 8.98472C78.7621 9.83827 81.7394 11.7251 81.7394 15.5436V15.858C81.7394 19.9012 77.7697 22.5517 70.0559 22.5517H69.2439C61.2594 22.5517 57.2446 19.8562 57.2446 14.9146V14.4205H63.6051V14.9146C63.6051 17.1159 65.6351 17.5651 69.2439 17.5651H70.0108C73.2587 17.5651 75.1984 17.1608 75.1984 15.9928V15.6783C75.1984 14.4654 73.4391 14.1509 67.3042 13.4771C60.8083 12.8032 57.5153 10.9614 57.5153 7.00809V6.73854C57.5153 2.38095 61.9361 0 69.0635 0H69.8754Z" fill="#1D1D1B"></path> <path d="M125 44.5193H106.685V49.5957H125V44.5193Z" fill="#62C0BC"></path> <path d="M87.2429 0.449219L93.1974 8.17608H94.6409L100.325 0.449219H107.091L97.0318 13.7915V22.2821H90.6261V13.7915L79.9351 0.449219H87.2429Z" fill="#1D1D1B"></path> </svg> 